<?xml version="1.0" encoding="UTF-8"?>
<!DOCTYPE svg PUBLIC "-//W3C//DTD SVG 1.1//EN" "http://www.w3.org/Graphics/SVG/1.1/DTD/svg11.dtd">
<svg xmlns="http://www.w3.org/2000/svg" version="1.1" width="225px" height="225px" style="shape-rendering:geometricPrecision; text-rendering:geometricPrecision; image-rendering:optimizeQuality; fill-rule:evenodd; clip-rule:evenodd" xmlns:xlink="http://www.w3.org/1999/xlink">
<g><path style="opacity:0" fill="#fefefe" d="M -0.5,-0.5 C 74.5,-0.5 149.5,-0.5 224.5,-0.5C 224.5,74.5 224.5,149.5 224.5,224.5C 149.5,224.5 74.5,224.5 -0.5,224.5C -0.5,149.5 -0.5,74.5 -0.5,-0.5 Z"/></g>
<g><path style="opacity:1" fill="#09c3a5" d="M 93.5,25.5 C 105.833,25.5 118.167,25.5 130.5,25.5C 131.347,42.8756 132.681,60.2089 134.5,77.5C 134.167,78.1667 133.833,78.8333 133.5,79.5C 105.717,88.7164 81.0503,103.05 59.5,122.5C 46.0192,116.924 32.6859,111.091 19.5,105C 23.0703,94.5643 26.5703,84.0643 30,73.5C 30.3076,72.6919 30.8076,72.0253 31.5,71.5C 50.4581,76.3228 69.4581,80.9895 88.5,85.5C 90.8739,65.5585 92.5405,45.5585 93.5,25.5 Z"/></g>
<g><path style="opacity:1" fill="#08c3a5" d="M 188.5,71.5 C 190.766,71.1412 192.599,71.8078 194,73.5C 197.686,84.3863 200.852,95.3863 203.5,106.5C 159.757,115.785 124.257,138.119 97,173.5C 91.0721,182.361 85.4054,191.361 80,200.5C 66.5964,192.548 53.4298,184.214 40.5,175.5C 73.4151,117.69 122.748,83.0234 188.5,71.5 Z"/></g>
<g><path style="opacity:1" fill="#0bc3a5" d="M 150.5,133.5 C 152.433,134.642 153.933,136.308 155,138.5C 163.299,152.267 171.466,166.1 179.5,180C 170.3,187.522 160.8,194.689 151,201.5C 141.486,189.989 131.986,178.489 122.5,167C 125.806,159.364 130.306,152.531 136,146.5C 141,142.267 145.834,137.933 150.5,133.5 Z"/></g>
</svg>
